<mxfile host="app.diagrams.net" modified="2023-10-12T08:33:16.253Z" agent="Mozilla/5.0 (Macintosh; Intel Mac OS X 10_15_7) AppleWebKit/537.36 (KHTML, like Gecko) Chrome/118.0.0.0 Safari/537.36" version="22.0.4" etag="F-rM0G_MhQUbqPlIGVke" type="github">
  <diagram name="페이지-1" id="xiI8yBrfDbnP5GgyGFW0">
    <mxGraphModel>
      <root>
        <mxCell id="0" />
        <mxCell id="1" parent="0" />
      </root>
    </mxGraphModel>
  </diagram>
</mxfile>
